<svg width="1440" height="812" viewBox="0 0 1440 812" fill="none" xmlns="http://www.w3.org/2000/svg">
<g opacity="0.8">
<path fillRule="evenodd" clipRule="evenodd" d="M1443.5 661.68C1407.49 620.246 1343.27 568.165 1295.55 563.569C1263.93 560.524 1224.53 567.596 1177.85 575.974C1124.88 585.48 1062.53 596.668 991.552 596.668C933.913 596.668 903.679 598.072 880.289 599.158C846.462 600.729 826.95 601.635 759.552 596.668C759.552 596.668 709.754 552.454 536.052 478.569C438.949 437.266 424.745 387.285 410.842 338.365C399.332 297.862 388.028 258.087 330.052 224.569C284.515 198.243 255.912 165.159 228.286 133.204C178.259 75.3376 131.435 21.1771 -6.94824 17.5693V812.069H1446.05C1446.05 812.046 1446.05 812.023 1446.05 812H1443.5V661.68Z" fill="#A3A1F3"/>
<path fillRule="evenodd" clipRule="evenodd" d="M1264.55 66.5692C1292.98 59.8922 1314.78 44.2089 1334.9 29.7416C1368.26 5.74928 1396.97 -14.8985 1443.5 14.4229V208.905L1435.55 809.569H0.0516891C-2.12359 805.286 -4.30897 800.868 -6.5 796.323V245.197C91.5041 242.863 146.732 281.395 204.868 321.957C250.141 353.543 297.177 386.361 367.552 402.069C535.552 439.569 1009.05 241.569 1056.05 188.569C1061.68 182.226 1066.81 176.156 1071.74 170.323C1108 127.417 1133.38 97.3806 1264.55 66.5692Z" fill="#6563EB"/>
<path fillRule="evenodd" clipRule="evenodd" d="M1443.5 173.271C1430.2 147.287 1393.06 179.875 1343.14 223.676C1281.88 277.429 1201.37 348.07 1122.05 348.07C1036.96 348.07 946.945 392.84 847.093 442.502C794.393 468.713 738.953 496.286 680.052 519.359C561.916 565.635 494.669 544.764 428.581 524.253C399.287 515.162 370.221 506.141 337.052 503.069C302.686 499.887 267.915 484.555 230.87 468.22C163.151 438.359 87.8325 405.147 -6.49994 436.687V812H-7.15381L-6.62979 815.714L1443.5 810.571V173.271Z" fill="#D1D1F9"/>
</g>
</svg>
