<svg width="494" height="692" viewBox="0 0 494 692" fill="none" xmlns="http://www.w3.org/2000/svg">
<path d="M140.704 3.8548C137.806 8.68512 137.162 13.1934 137.162 21.888C136.84 76.3096 140.704 137.494 180.957 189.017C207.685 223.473 274.021 288.522 296.884 329.418C326.188 381.586 339.069 414.432 344.544 444.058C346.798 455.329 349.052 461.447 355.814 461.447C361.289 461.447 366.441 456.939 368.051 442.77C371.915 407.67 374.814 362.587 362.577 322.978C345.51 268.234 308.477 215.101 246.327 155.527C195.448 106.902 168.72 64.0728 160.025 16.7357C159.059 10.9393 158.737 8.04108 155.195 3.8548C150.043 -2.90764 142.958 0.63459 140.704 3.8548Z" fill="#6563EB"/>
<path d="M414.419 86.6151C412.808 83.7169 406.368 80.8187 401.216 86.6151C397.995 90.4794 397.995 93.0555 397.029 98.2079C389.623 139.427 366.759 176.781 323.931 218.644C336.811 238.931 347.438 259.219 356.455 278.862C365.149 269.201 372.878 260.185 378.674 252.778C414.741 206.407 417.961 151.341 417.961 102.716C417.639 94.9877 416.995 91.1234 414.419 86.6151ZM215.409 372.892C204.461 408.314 207.037 448.889 210.579 480.447C212.189 493.006 216.697 497.192 221.528 497.192C227.324 497.192 229.578 492.04 231.51 481.735C236.341 455.33 248.256 425.704 274.339 379.01C279.814 369.35 287.864 358.401 297.203 346.486C286.576 330.385 271.763 312.996 255.662 294.963C236.985 321.047 223.782 346.808 215.409 372.892Z" fill="#6563EB"/>
<path d="M185.143 253.423C134.264 204.798 107.536 161.969 98.8413 114.632C97.8752 108.836 97.5532 105.938 94.011 101.751C88.5366 94.9888 81.4521 98.5311 79.52 101.751C76.6218 106.582 75.9778 111.09 75.9778 119.784C75.6557 174.206 79.52 235.39 119.773 286.914C137.806 310.099 173.872 347.132 202.21 381.266C209.939 356.148 217.989 328.454 232.48 303.015C218.633 286.914 202.854 270.168 185.143 253.423ZM301.393 420.874C298.173 410.248 293.986 399.943 289.156 389.316C272.089 409.604 259.53 432.145 250.513 455.331C269.191 492.041 278.529 518.125 283.037 541.954C285.292 553.225 287.546 559.344 294.308 559.344C299.783 559.344 304.935 554.835 306.545 540.666C310.731 505.244 313.63 460.161 301.393 420.874Z" fill="#6563EB"/>
<path d="M14.6687 674.344L0.716693 632.168H3.85269L11.6607 656.808C12.4714 659.368 13.1967 661.736 13.8367 663.912C14.5194 666.045 15.2874 668.392 16.1407 670.952H16.3967C17.25 668.392 17.9967 666.045 18.6367 663.912C19.2767 661.736 20.002 659.368 20.8127 656.808L28.6207 632.168H31.6287L17.8047 674.344H14.6687ZM56.1062 674.344V632.168H79.2102V634.728H59.0502V650.664H75.9462V653.224H59.0502V671.784H79.8502V674.344H56.1062ZM107.044 674.344V632.168H130.02V634.728H109.988V651.496H126.948V654.056H109.988V674.344H107.044ZM165.552 675.112C162.48 675.112 159.749 674.514 157.36 673.32C154.97 672.125 152.944 670.61 151.28 668.776L153.2 666.728C154.736 668.434 156.57 669.821 158.704 670.888C160.837 671.912 163.12 672.424 165.552 672.424C168.794 672.424 171.354 671.634 173.232 670.056C175.109 668.477 176.048 666.45 176.048 663.976C176.048 662.226 175.706 660.818 175.024 659.752C174.341 658.685 173.424 657.81 172.272 657.128C171.162 656.402 169.904 655.741 168.496 655.144L162.096 652.264C160.901 651.709 159.621 651.026 158.256 650.216C156.933 649.362 155.802 648.274 154.864 646.952C153.968 645.586 153.52 643.858 153.52 641.768C153.52 639.72 154.053 637.928 155.12 636.392C156.186 634.813 157.637 633.597 159.472 632.744C161.349 631.848 163.461 631.4 165.808 631.4C168.325 631.4 170.586 631.912 172.592 632.936C174.597 633.917 176.24 635.09 177.52 636.456L175.856 638.376C174.618 637.096 173.168 636.072 171.504 635.304C169.84 634.493 167.941 634.088 165.808 634.088C163.034 634.088 160.773 634.77 159.024 636.136C157.317 637.501 156.464 639.336 156.464 641.64C156.464 643.261 156.848 644.584 157.616 645.608C158.426 646.632 159.386 647.464 160.496 648.104C161.648 648.744 162.736 649.298 163.76 649.768L170.16 652.584C171.738 653.266 173.189 654.077 174.512 655.016C175.877 655.912 176.965 657.064 177.776 658.472C178.629 659.837 179.056 661.608 179.056 663.784C179.056 665.917 178.501 667.858 177.392 669.608C176.282 671.314 174.704 672.658 172.656 673.64C170.65 674.621 168.282 675.112 165.552 675.112ZM205.919 674.344V632.168H208.863V655.592H208.991L229.407 632.168H232.927L219.487 647.784L234.783 674.344H231.391L217.439 650.024L208.863 659.816V674.344H205.919ZM273.262 675.112C269.892 675.112 266.905 674.216 264.302 672.424C261.7 670.589 259.652 668.029 258.158 664.744C256.665 661.458 255.918 657.576 255.918 653.096C255.918 648.658 256.665 644.818 258.158 641.576C259.652 638.333 261.7 635.837 264.302 634.088C266.905 632.296 269.892 631.4 273.262 631.4C276.676 631.4 279.684 632.296 282.286 634.088C284.889 635.837 286.937 638.333 288.43 641.576C289.924 644.818 290.67 648.658 290.67 653.096C290.67 657.576 289.924 661.458 288.43 664.744C286.937 668.029 284.889 670.589 282.286 672.424C279.684 674.216 276.676 675.112 273.262 675.112ZM273.262 672.424C276.121 672.424 278.617 671.634 280.75 670.056C282.884 668.434 284.548 666.173 285.742 663.272C286.937 660.37 287.534 656.978 287.534 653.096C287.534 649.213 286.937 645.864 285.742 643.048C284.548 640.189 282.884 637.992 280.75 636.456C278.617 634.877 276.121 634.088 273.262 634.088C270.404 634.088 267.908 634.877 265.774 636.456C263.641 637.992 261.977 640.189 260.782 643.048C259.588 645.864 258.99 649.213 258.99 653.096C258.99 656.978 259.588 660.37 260.782 663.272C261.977 666.173 263.641 668.434 265.774 670.056C267.908 671.634 270.404 672.424 273.262 672.424ZM271.918 629.16L270.638 627.688L278.638 619.816L280.43 621.928L271.918 629.16ZM318.356 674.344V632.168H321.3V671.784H340.756V674.344H318.356ZM366.231 674.344V632.168H369.175V674.344H366.231ZM399.606 674.344V632.168H402.678L420.47 661.928L425.206 670.312H425.462C425.42 668.264 425.334 666.216 425.206 664.168C425.121 662.12 425.078 660.072 425.078 658.024V632.168H427.894V674.344H424.822L407.03 644.584L402.294 636.2H402.038C402.124 638.205 402.209 640.189 402.294 642.152C402.38 644.114 402.422 646.12 402.422 648.168V674.344H399.606ZM458.294 674.344V632.168H461.366L479.158 661.928L483.894 670.312H484.15C484.107 668.264 484.022 666.216 483.894 664.168C483.808 662.12 483.766 660.072 483.766 658.024V632.168H486.582V674.344H483.51L465.718 644.584L460.982 636.2H460.726C460.811 638.205 460.896 640.189 460.982 642.152C461.067 644.114 461.11 646.12 461.11 648.168V674.344H458.294Z" fill="black"/>
</svg>
