<svg width="16" height="24" viewBox="0 0 16 24" fill="none" xmlns="http://www.w3.org/2000/svg">
<path d="M0.554272 23.5257C0.184757 23.2095 0 22.8351 0 22.4025C0 21.9708 0.184757 21.5968 0.554272 21.2806L11.3811 12.0158L0.517321 2.71937C0.17244 2.42424 0 2.05534 0 1.61265C0 1.16996 0.184757 0.790514 0.554272 0.474308C0.923787 0.158103 1.36129 0 1.86679 0C2.3713 0 2.80831 0.158103 3.17783 0.474308L15.5935 11.1304C15.7413 11.2569 15.8463 11.3939 15.9084 11.5415C15.9695 11.6891 16 11.8472 16 12.0158C16 12.1845 15.9695 12.3426 15.9084 12.4901C15.8463 12.6377 15.7413 12.7747 15.5935 12.9012L3.14088 23.5573C2.796 23.8524 2.3713 24 1.86679 24C1.36129 24 0.923787 23.8419 0.554272 23.5257Z" fill="#6563EB"/>
</svg>
