<svg width="48" height="48" viewBox="0 0 48 48" fill="none" xmlns="http://www.w3.org/2000/svg">
<path d="M47.2967 43.9009C47.5197 44.1239 47.6965 44.3886 47.8172 44.6799C47.9379 44.9712 48 45.2835 48 45.5988C48 45.9141 47.9379 46.2264 47.8172 46.5177C47.6965 46.809 47.5197 47.0737 47.2967 47.2967C47.0737 47.5197 46.809 47.6965 46.5177 47.8172C46.2264 47.9379 45.9141 48 45.5988 48C45.2835 48 44.9712 47.9379 44.6799 47.8172C44.3886 47.6965 44.1239 47.5197 43.9009 47.2967L24 27.3928L4.09911 47.2967C3.64879 47.747 3.03804 48 2.4012 48C1.76436 48 1.15361 47.747 0.703295 47.2967C0.252983 46.8464 1.25536e-08 46.2356 0 45.5988C-1.25536e-08 44.962 0.252983 44.3512 0.703295 43.9009L20.6072 24L0.703295 4.09911C0.252983 3.64879 -4.74481e-09 3.03804 0 2.4012C4.74481e-09 1.76436 0.252983 1.15361 0.703295 0.703295C1.15361 0.252983 1.76436 4.74481e-09 2.4012 0C3.03804 -4.74481e-09 3.64879 0.252983 4.09911 0.703295L24 20.6072L43.9009 0.703295C44.3512 0.252983 44.962 -1.25536e-08 45.5988 0C46.2356 1.25536e-08 46.8464 0.252983 47.2967 0.703295C47.747 1.15361 48 1.76436 48 2.4012C48 3.03804 47.747 3.64879 47.2967 4.09911L27.3928 24L47.2967 43.9009Z" fill="white"/>
</svg>
