<svg width="17" height="18" viewBox="0 0 17 18" fill="none" xmlns="http://www.w3.org/2000/svg">
<path fill-rule="evenodd" clip-rule="evenodd" d="M10.3396 0H1.87993C1.38134 0 0.903173 0.189642 0.550618 0.527208C0.198063 0.864773 0 1.32261 0 1.8V16.2C0 16.6774 0.198063 17.1352 0.550618 17.4728C0.903173 17.8104 1.38134 18 1.87993 18H10.3396C10.8382 18 11.3164 17.8104 11.6689 17.4728C12.0215 17.1352 12.2195 16.6774 12.2195 16.2V15.3C12.2195 15.0613 12.1205 14.8324 11.9442 14.6636C11.7679 14.4948 11.5289 14.4 11.2796 14.4C11.0303 14.4 10.7912 14.4948 10.6149 14.6636C10.4386 14.8324 10.3396 15.0613 10.3396 15.3V16.2H1.87993V1.8H10.3396V2.7C10.3396 2.93869 10.4386 3.16761 10.6149 3.3364C10.7912 3.50518 11.0303 3.6 11.2796 3.6C11.5289 3.6 11.7679 3.50518 11.9442 3.3364C12.1205 3.16761 12.2195 2.93869 12.2195 2.7V1.8C12.2195 1.32261 12.0215 0.864773 11.6689 0.527208C11.3164 0.189642 10.8382 0 10.3396 0ZM13.3522 12.8656C12.9856 13.2166 12.3934 13.2166 12.0269 12.8656C11.8511 12.6972 11.7524 12.4689 11.7522 12.2308C11.752 11.9928 11.8505 11.7644 12.0259 11.5957L13.7893 9.90009H5.6398C5.39051 9.90009 5.15142 9.80527 4.97515 9.63648C4.79887 9.4677 4.69984 9.23878 4.69984 9.00009C4.69984 8.76139 4.79887 8.53247 4.97515 8.36369C5.15142 8.19491 5.39051 8.10009 5.6398 8.10009H13.7893L12.0259 6.40449C11.8644 6.23341 11.7778 6.00945 11.7838 5.77892C11.7899 5.54839 11.8883 5.32891 12.0586 5.16585C12.2289 5.00279 12.4581 4.90862 12.6989 4.9028C12.9396 4.89698 13.1735 4.97996 13.3522 5.13459L16.7248 8.36379C16.901 8.53256 17 8.76144 17 9.00009C17 9.23873 16.901 9.46761 16.7248 9.63639L13.3522 12.8656Z" fill="#666666"/>
</svg>
